<svg width="18" height="18" viewBox="0 0 18 18" fill="none" xmlns="http://www.w3.org/2000/svg">
<mask id="mask0_0_2560" style="mask-type:luminance" maskUnits="userSpaceOnUse" x="0" y="0" width="18" height="18">
<path fill-rule="evenodd" clip-rule="evenodd" d="M0.902832 17.2734H17.454V0.691162H0.902832V17.2734Z" fill="white"/>
</mask>
<g mask="url(#mask0_0_2560)">
<path fill-rule="evenodd" clip-rule="evenodd" d="M16.5405 0.691162H1.8163C1.31175 0.691162 0.902832 1.10085 0.902832 1.60634V16.3582C0.902832 16.8636 1.31175 17.2734 1.8163 17.2734H9.74335V10.8519H7.58638V8.34929H9.74335V6.5037C9.74335 4.36195 11.049 3.1957 12.956 3.1957C13.8696 3.1957 14.6547 3.26379 14.8834 3.29424V5.53254L13.5608 5.53317C12.5237 5.53317 12.3228 6.02692 12.3228 6.75148V8.34929H14.7964L14.4743 10.8519H12.3228V17.2734H16.5405C17.045 17.2734 17.454 16.8636 17.454 16.3582V1.60634C17.454 1.10085 17.045 0.691162 16.5405 0.691162Z" fill="#EBCB80"/>
</g>
</svg>
