<svg width="26" height="16" viewBox="0 0 26 16" fill="none" xmlns="http://www.w3.org/2000/svg">
<path fill-rule="evenodd" clip-rule="evenodd" d="M7.75555 6.77771V9.48879H12.1458C11.9688 10.6523 10.8187 12.9002 7.75555 12.9002C5.11259 12.9002 2.95619 10.6636 2.95619 7.90733C2.95619 5.15106 5.11259 2.91442 7.75555 2.91442C9.2595 2.91442 10.2658 3.56959 10.8409 4.1344L12.942 2.0672C11.5928 0.779437 9.8456 0 7.75555 0C3.47594 0 0.0146484 3.53571 0.0146484 7.90733C0.0146484 12.279 3.47594 15.8147 7.75555 15.8147C12.2232 15.8147 15.1868 12.6065 15.1868 8.08807C15.1868 7.56844 15.1315 7.17308 15.0652 6.77771H7.75555Z" fill="#EBCB80"/>
<path fill-rule="evenodd" clip-rule="evenodd" d="M24.3431 6.77779H22.1314V4.51855H19.9197V6.77779H17.708V9.03703H19.9197V11.2963H22.1314V9.03703H24.3431" fill="#EBCB80"/>
</svg>
