<svg width="18" height="18" viewBox="0 0 18 18" fill="none" xmlns="http://www.w3.org/2000/svg">
<mask id="mask0_0_2563" style="mask-type:luminance" maskUnits="userSpaceOnUse" x="0" y="0" width="17" height="18">
<path fill-rule="evenodd" clip-rule="evenodd" d="M0.134766 17.2765H16.6925V0.691162H0.134766V17.2765Z" fill="white"/>
</mask>
<g mask="url(#mask0_0_2563)">
<path fill-rule="evenodd" clip-rule="evenodd" d="M14.8529 5.29922C14.8529 5.5537 14.6469 5.76002 14.3929 5.76002H12.0932C11.8392 5.76002 11.6333 5.5537 11.6333 5.29922V2.99522C11.6333 2.74075 11.8392 2.53442 12.0932 2.53442H14.3929C14.6469 2.53442 14.8529 2.74075 14.8529 2.99522V5.29922ZM14.8528 14.9761C14.8528 15.2305 14.6469 15.4369 14.3929 15.4369H2.43455C2.18055 15.4369 1.97461 15.2305 1.97461 14.9761V7.60327H3.54495C3.42088 8.0427 3.35442 8.50644 3.35442 8.98567C3.35442 11.7851 5.61955 14.0545 8.41372 14.0545C11.2079 14.0545 13.473 11.7851 13.473 8.98567C13.473 8.50644 13.4066 8.0427 13.2825 7.60327H14.8528V14.9761ZM8.4134 5.76001C10.1915 5.76001 11.633 7.20416 11.633 8.98561C11.633 10.7671 10.1915 12.2112 8.4134 12.2112C6.63529 12.2112 5.19385 10.7671 5.19385 8.98561C5.19385 7.20416 6.63529 5.76001 8.4134 5.76001ZM14.3928 0.691162H2.43445C1.16439 0.691162 0.134766 1.72272 0.134766 2.99516V14.976C0.134766 16.2484 1.16439 17.28 2.43445 17.28H14.3928C15.6629 17.28 16.6925 16.2484 16.6925 14.976V2.99516C16.6925 1.72272 15.6629 0.691162 14.3928 0.691162Z" fill="#EBCB80"/>
</g>
</svg>
