<svg width="19" height="17" viewBox="0 0 19 17" fill="none" xmlns="http://www.w3.org/2000/svg">
<mask id="mask0_0_2573" style="mask-type:luminance" maskUnits="userSpaceOnUse" x="0" y="0" width="18" height="17">
<path fill-rule="evenodd" clip-rule="evenodd" d="M0.491699 16.5612H17.5272V0H0.491699V16.5612Z" fill="white"/>
</mask>
<g mask="url(#mask0_0_2573)">
<path fill-rule="evenodd" clip-rule="evenodd" d="M15.0086 14.1355H12.4825V10.2856C12.4825 9.36765 12.4659 8.18662 11.1693 8.18662C9.85471 8.18662 9.65406 9.18702 9.65406 10.2201V14.1355H7.13037V6.21901H9.55232V7.30142H9.58686C9.9238 6.67888 10.7486 6.02271 11.9781 6.02271C14.5358 6.02271 15.0086 7.66177 15.0086 9.79389V14.1355ZM4.28148 5.13743C3.46991 5.13743 2.81592 4.4983 2.81592 3.71033C2.81592 2.92282 3.46991 2.28369 4.28148 2.28369C5.08975 2.28369 5.7461 2.92282 5.7461 3.71033C5.7461 4.4983 5.08975 5.13743 4.28148 5.13743ZM3.01611 14.1355H5.54501V6.21899H3.01611V14.1355ZM16.267 0H1.74857C1.05531 0 0.491699 0.53545 0.491699 1.19624V15.3916C0.491699 16.0524 1.05531 16.5888 1.74857 16.5888H16.267C16.9622 16.5888 17.5272 16.0524 17.5272 15.3916V1.19624C17.5272 0.53545 16.9622 0 16.267 0Z" fill="#EBCB80"/>
</g>
</svg>
