<svg width="11" height="17" viewBox="0 0 11 17" fill="none" xmlns="http://www.w3.org/2000/svg">
<path fill-rule="evenodd" clip-rule="evenodd" d="M5.2583 16.3562C5.01465 16.3562 4.78857 16.2264 4.66064 16.0132C3.28271 13.7748 0 8.15552 0 5.41895C0 2.42615 2.354 0 5.2583 0C8.16211 0 10.5166 2.42615 10.5166 5.41895C10.5166 8.15552 7.23389 13.7748 5.85596 16.0133C5.72803 16.2264 5.50146 16.3562 5.2583 16.3562ZM7.17041 4.98792C7.17041 6.11023 6.2876 7.02014 5.19824 7.02014C4.10938 7.02014 3.22656 6.11023 3.22656 4.98792C3.22656 3.8656 4.10938 2.95581 5.19824 2.95581C6.2876 2.95581 7.17041 3.8656 7.17041 4.98792Z" fill="white"/>
</svg>
