<svg width="22" height="18" viewBox="0 0 22 18" fill="none" xmlns="http://www.w3.org/2000/svg">
<mask id="mask0_0_2557" style="mask-type:luminance" maskUnits="userSpaceOnUse" x="0" y="0" width="22" height="18">
<path fill-rule="evenodd" clip-rule="evenodd" d="M0.862793 17.2754H21.1575V0.752197H0.862793V17.2754Z" fill="white"/>
</mask>
<g mask="url(#mask0_0_2557)">
<path fill-rule="evenodd" clip-rule="evenodd" d="M21.1576 2.70871C20.4107 3.04056 19.608 3.26484 18.7656 3.36571C19.6255 2.8493 20.2858 2.03162 20.5967 1.05734C19.7921 1.53544 18.9008 1.88269 17.9522 2.06985C17.1925 1.25894 16.1101 0.752197 14.9123 0.752197C12.6123 0.752197 10.7476 2.62033 10.7476 4.92454C10.7476 5.25156 10.7845 5.57002 10.8555 5.87538C7.39424 5.70139 4.32557 4.04028 2.27152 1.51595C1.91304 2.13219 1.70767 2.84893 1.70767 3.61358C1.70767 5.06112 2.44296 6.33823 3.56042 7.08644C2.8777 7.06479 2.23558 6.87711 1.67403 6.5646C1.67374 6.58201 1.67374 6.59949 1.67374 6.61704C1.67374 8.63865 3.10928 10.3251 5.01446 10.7083C4.66496 10.8037 4.29706 10.8546 3.91719 10.8546C3.64886 10.8546 3.38794 10.8285 3.13371 10.7798C3.66363 12.4375 5.20164 13.6438 7.02403 13.6775C5.59873 14.7965 3.803 15.4636 1.85186 15.4636C1.51573 15.4636 1.18421 15.4438 0.858398 15.4053C2.70143 16.5891 4.89053 17.2799 7.2424 17.2799C14.9026 17.2799 19.0915 10.922 19.0915 5.40837C19.0915 5.22745 19.0875 5.04751 19.0795 4.8686C19.8931 4.28033 20.5992 3.54544 21.1576 2.70871Z" fill="#EBCB80"/>
</g>
</svg>
